HIERARCHY
ROOT Character1_Hips
{
	OFFSET 0.000000 100.000000 2.939723
	CHANNELS 6 Xposition Yposition Zposition Xrotation Yrotation Zrotation
	JOINT Character1_LeftUpLeg
	{
		OFFSET 13.075600 -3.179573 0.639552
		CHANNELS 6 Xposition Yposition Zposition Xrotation Yrotation Zrotation
		JOINT Character1_LeftLeg
		{
			OFFSET 6.794693 -36.312580 6.633760
			CHANNELS 6 Xposition Yposition Zposition Xrotation Yrotation Zrotation
			JOINT Character1_LeftFoot
			{
				OFFSET 5.947412 -40.837662 -22.023926
				CHANNELS 6 Xposition Yposition Zposition Xrotation Yrotation Zrotation
				JOINT Character1_LeftToeBase
				{
					OFFSET 3.530376 -16.714510 10.064380
					CHANNELS 6 Xposition Yposition Zposition Xrotation Yrotation Zrotation
					End Site
					{
						OFFSET -2.271824 16.407722 10.897503
					}
				}
			}
		}
	}
	JOINT Character1_Spine
	{
		OFFSET 0.000000 7.000000 0.000000
		CHANNELS 6 Xposition Yposition Zposition Xrotation Yrotation Zrotation
		JOINT Character1_Spine1
		{
			OFFSET 0.000000 16.380211 2.769184
			CHANNELS 6 Xposition Yposition Zposition Xrotation Yrotation Zrotation
			JOINT Character1_Spine2
			{
				OFFSET 0.000000 12.374672 -2.704058
				CHANNELS 6 Xposition Yposition Zposition Xrotation Yrotation Zrotation
				JOINT Character1_LeftShoulder
				{
					OFFSET 5.427837 13.926559 -3.043173
					CHANNELS 6 Xposition Yposition Zposition Xrotation Yrotation Zrotation
					JOINT Character1_LeftArm
					{
						OFFSET 8.328239 -1.513916 0.330815
						CHANNELS 6 Xposition Yposition Zposition Xrotation Yrotation Zrotation
						JOINT Character1_LeftForeArm
						{
							OFFSET 18.202459 -29.020149 -4.646062
							CHANNELS 6 Xposition Yposition Zposition Xrotation Yrotation Zrotation
							JOINT Character1_LeftHand
							{
								OFFSET 15.200285 -17.465500 27.094383
								CHANNELS 6 Xposition Yposition Zposition Xrotation Yrotation Zrotation
								JOINT Character1_LeftHandMiddle1
								{
									OFFSET 7.709641 -14.857452 -17.946499
									CHANNELS 6 Xposition Yposition Zposition Xrotation Yrotation Zrotation
									JOINT Character1_LeftHandMiddle2
									{
										OFFSET 1.322605 -2.846581 -3.714697
										CHANNELS 6 Xposition Yposition Zposition Xrotation Yrotation Zrotation
										JOINT Character1_LeftHandMiddle3
										{
											OFFSET 0.752029 -1.618561 -2.112170
											CHANNELS 6 Xposition Yposition Zposition Xrotation Yrotation Zrotation
											JOINT Character1_LeftHandMiddle4
											{
												OFFSET 0.545444 -1.173950 -1.531966
												CHANNELS 6 Xposition Yposition Zposition Xrotation Yrotation Zrotation
												End Site
												{
													OFFSET 1.669838 1.085350 -0.237167
												}
											}
										}
									}
								}
							}
						}
					}
				}
				JOINT Character1_Neck
				{
					OFFSET 0.000000 18.401016 -4.020909
					CHANNELS 6 Xposition Yposition Zposition Xrotation Yrotation Zrotation
					JOINT Character1_Head
					{
						OFFSET 0.000000 14.491531 -1.122575
						CHANNELS 6 Xposition Yposition Zposition Xrotation Yrotation Zrotation
						End Site
						{
							OFFSET 0.000000 14.491531 -1.122574
						}
					}
				}
				JOINT Character1_RightShoulder
				{
					OFFSET -5.427840 13.926117 -3.043174
					CHANNELS 6 Xposition Yposition Zposition Xrotation Yrotation Zrotation
					JOINT Character1_RightArm
					{
						OFFSET -8.328259 -1.513000 0.330810
						CHANNELS 6 Xposition Yposition Zposition Xrotation Yrotation Zrotation
						JOINT Character1_RightForeArm
						{
							OFFSET -18.202396 -29.020996 -4.646053
							CHANNELS 6 Xposition Yposition Zposition Xrotation Yrotation Zrotation
							JOINT Character1_RightHand
							{
								OFFSET -15.200314 -17.465004 27.094368
								CHANNELS 6 Xposition Yposition Zposition Xrotation Yrotation Zrotation
								JOINT Character1_RightHandMiddle1
								{
									OFFSET -7.709606 -14.857590 -17.946499
									CHANNELS 6 Xposition Yposition Zposition Xrotation Yrotation Zrotation
									JOINT Character1_RightHandMiddle2
									{
										OFFSET -1.322693 -2.846603 -3.714697
										CHANNELS 6 Xposition Yposition Zposition Xrotation Yrotation Zrotation
										JOINT Character1_RightHandMiddle3
										{
											OFFSET -0.751999 -1.618515 -2.112154
											CHANNELS 6 Xposition Yposition Zposition Xrotation Yrotation Zrotation
											JOINT Character1_RightHandMiddle4
											{
												OFFSET -0.545403 -1.173981 -1.531966
												CHANNELS 6 Xposition Yposition Zposition Xrotation Yrotation Zrotation
												End Site
												{
													OFFSET 1.669846 -1.085350 0.237166
												}
											}
										}
									}
								}
							}
						}
					}
				}
			}
		}
	}
	JOINT Character1_RightUpLeg
	{
		OFFSET -13.075600 -3.179604 0.639557
		CHANNELS 6 Xposition Yposition Zposition Xrotation Yrotation Zrotation
		JOINT Character1_RightLeg
		{
			OFFSET -6.794699 -36.312603 6.633728
			CHANNELS 6 Xposition Yposition Zposition Xrotation Yrotation Zrotation
			JOINT Character1_RightFoot
			{
				OFFSET -5.947401 -40.837593 -22.023903
				CHANNELS 6 Xposition Yposition Zposition Xrotation Yrotation Zrotation
				JOINT Character1_RightToeBase
				{
					OFFSET -3.530399 -16.714542 10.064388
					CHANNELS 6 Xposition Yposition Zposition Xrotation Yrotation Zrotation
					End Site
					{
						OFFSET -2.271843 -16.407749 -10.897524
					}
				}
			}
		}
	}
	JOINT joint1
	{
		OFFSET 0.000000 7.237732 -8.627434
		CHANNELS 6 Xposition Yposition Zposition Xrotation Yrotation Zrotation
		JOINT joint2
		{
			OFFSET 0.000000 -15.798248 -15.406558
			CHANNELS 6 Xposition Yposition Zposition Xrotation Yrotation Zrotation
			JOINT joint3
			{
				OFFSET 0.000000 -15.667686 -9.531178
				CHANNELS 6 Xposition Yposition Zposition Xrotation Yrotation Zrotation
				JOINT joint4
				{
					OFFSET 0.000000 -22.065323 -6.658768
					CHANNELS 6 Xposition Yposition Zposition Xrotation Yrotation Zrotation
					End Site
					{
						OFFSET -0.000001 23.048164 0.000004
					}
				}
			}
		}
	}
}
MOTION
Frames: 5
Frame Time: 0.041667
1.293380 91.075455 8.930168 24.216857 12.431296 -5.530240 13.075607 -3.179570 0.639550 -24.243878 20.837539 21.696186 6.794656 -36.312588 6.633934 -3.249011 1.613117 4.383801 5.947392 -40.837650 -22.023968 18.556034 10.060698 -15.139469 3.530367 -16.714523 10.064382 -18.453737 0.000041 0.000005 0.000004 7.000010 0.000000 -5.567685 -4.882941 3.453245 -0.000000 16.380198 2.769185 -10.963248 -10.930233 4.875966 0.000001 12.374681 -2.704056 -11.165321 -11.676885 2.588389 5.427837 13.926590 -3.043178 0.000002 0.000002 0.000002 8.328249 -1.513902 0.330827 -28.591192 26.754155 13.460840 18.202433 -29.020210 -4.646164 -47.984705 -65.613536 -34.891110 15.200246 -17.465513 27.094400 -2.127720 22.001071 -21.154045 7.709642 -14.857493 -17.946507 0.000018 -0.000044 -0.000056 1.322603 -2.846567 -3.714687 0.000008 0.000006 0.000007 0.752024 -1.618550 -2.112171 -0.000004 -0.000001 0.000001 0.545445 -1.173948 -1.531972 -0.000001 -0.000003 -0.000000 -0.000015 18.401112 -4.020978 12.145051 3.217812 -12.844025 0.000004 14.491569 -1.122564 0.497633 5.127929 -7.179024 -5.427842 13.926132 -3.043187 -0.000002 0.000002 -0.000002 -8.328278 -1.512982 0.330820 13.793605 -13.420003 -21.829515 -18.202385 -29.021034 -4.646100 -5.877041 31.562222 0.325018 -15.200307 -17.465042 27.094402 -3.998367 6.552569 11.745851 -7.709593 -14.857596 -17.946489 0.000018 -0.000012 0.000001 -1.322699 -2.846610 -3.714708 -0.000014 0.000008 -0.000001 -0.752006 -1.618489 -2.112162 0.000010 -0.000006 0.000008 -0.545423 -1.174009 -1.531976 -0.000013 0.000006 0.000003 -13.075587 -3.179587 0.639563 -59.161671 -8.463938 -19.753950 -6.794398 -36.312710 6.633574 8.381754 -7.568463 -2.590605 -5.947397 -40.837608 -22.023928 31.900392 -11.737609 11.230068 -3.530415 -16.714558 10.064405 -0.000002 -0.000003 0.000001 0.000003 7.237736 -8.627428 -0.457080 17.224496 -8.853206 -0.000004 -15.798255 -15.406561 0.000002 0.000000 -0.000000 0.000003 -15.667677 -9.531172 0.000003 0.000001 0.000003 0.000001 -22.065323 -6.658758 0.000006 0.000001 0.000000 
1.294906 91.081924 8.938671 24.221413 12.477241 -5.531223 13.075592 -3.179573 0.639548 -24.242587 20.841028 21.682121 6.794703 -36.312565 6.633928 -3.283665 1.591857 4.372696 5.947377 -40.837681 -22.023960 18.575130 10.039089 -15.126605 3.530358 -16.714523 10.064384 -18.453750 0.000028 0.000006 0.000000 6.999992 0.000004 -5.575160 -4.885813 3.450463 0.000001 16.380211 2.769193 -10.970597 -10.934162 4.874346 -0.000001 12.374681 -2.704060 -11.173017 -11.680101 2.587522 5.427841 13.926559 -3.043172 -0.000000 0.000002 0.000002 8.328244 -1.513905 0.330816 -28.078653 26.882368 13.378633 18.202417 -29.020227 -4.646187 -47.567374 -65.555739 -34.509346 15.200253 -17.465500 27.094391 0.653988 20.583835 -24.098335 7.709653 -14.857489 -17.946497 0.000028 -0.000036 -0.000063 1.322607 -2.846598 -3.714704 0.000008 0.000006 0.000002 0.752024 -1.618546 -2.112171 -0.000001 0.000001 -0.000002 0.545444 -1.173939 -1.531962 -0.000001 -0.000002 -0.000003 -0.000013 18.401031 -4.020916 12.144810 3.217884 -12.843968 0.000004 14.491538 -1.122567 0.497634 5.127932 -7.179021 -5.427838 13.926147 -3.043180 -0.000006 0.000002 -0.000003 -8.328267 -1.513011 0.330819 14.486666 -13.209405 -20.665627 -18.202393 -29.021009 -4.646037 -5.291953 29.861133 0.092971 -15.200299 -17.465021 27.094376 -0.602757 5.882641 12.282941 -7.709589 -14.857604 -17.946497 0.000013 -0.000009 0.000001 -1.322721 -2.846625 -3.714686 -0.000014 0.000008 0.000001 -0.751991 -1.618509 -2.112159 0.000010 -0.000007 0.000005 -0.545403 -1.173997 -1.531979 -0.000009 0.000004 0.000003 -13.075603 -3.179605 0.639558 -59.142185 -8.462615 -19.783411 -6.795551 -36.312450 6.633908 8.384574 -7.581359 -2.598777 -5.947412 -40.837601 -22.023932 31.886950 -11.750627 11.248473 -3.530403 -16.714558 10.064412 -0.000004 0.000001 0.000001 0.000002 7.237729 -8.627428 -0.457076 17.224499 -8.853211 0.000000 -15.798250 -15.406557 -0.000005 0.000005 -0.000001 0.000003 -15.667679 -9.531164 -0.000000 -0.000002 -0.000000 0.000001 -22.065317 -6.658764 -0.000003 -0.000002 0.000001 
1.300173 91.100655 8.963070 24.226848 12.532052 -5.532401 13.075586 -3.179586 0.639547 -23.936704 20.483643 21.482033 6.794688 -36.312550 6.633909 -3.439850 1.780460 4.481012 5.947379 -40.837688 -22.023962 18.611161 10.217790 -15.203002 3.530368 -16.714529 10.064382 -18.453737 0.000035 -0.000003 0.000001 6.999992 -0.000006 -5.596829 -4.894118 3.442378 -0.000001 16.380205 2.769186 -10.991862 -10.945538 4.869663 -0.000000 12.374657 -2.704052 -11.195314 -11.689404 2.585013 5.427835 13.926544 -3.043171 0.000002 0.000000 0.000003 8.328249 -1.513919 0.330816 -28.078674 26.882342 13.378651 18.202404 -29.020210 -4.646215 -47.567234 -65.555725 -34.509230 15.200250 -17.465504 27.094416 0.653964 20.583794 -24.098326 7.709644 -14.857489 -17.946491 0.000024 -0.000037 -0.000062 1.322600 -2.846580 -3.714693 0.000007 0.000003 0.000003 0.752026 -1.618558 -2.112180 0.000001 0.000001 -0.000000 0.545450 -1.173957 -1.531951 -0.000001 0.000000 0.000002 -0.000017 18.400991 -4.020955 12.314387 3.138865 -13.158732 0.000007 14.491563 -1.122565 0.709254 5.094686 -7.871457 -5.427843 13.926178 -3.043178 -0.000005 0.000001 -0.000000 -8.328264 -1.513012 0.330815 14.486649 -13.209382 -20.665644 -18.202389 -29.020988 -4.646060 -5.291935 29.861133 0.092986 -15.200311 -17.465059 27.094381 -0.602732 5.882651 12.282947 -7.709584 -14.857587 -17.946486 0.000016 -0.000011 0.000003 -1.322695 -2.846593 -3.714700 -0.000017 0.000007 -0.000001 -0.751981 -1.618504 -2.112158 0.000010 -0.000006 0.000006 -0.545404 -1.173997 -1.531976 -0.000009 0.000004 0.000001 -13.075600 -3.179607 0.639544 -59.096764 -8.473020 -19.818783 -6.795699 -36.312416 6.633942 8.366040 -7.592953 -2.607245 -5.947408 -40.837635 -22.023954 31.868809 -11.764785 11.271953 -3.530413 -16.714544 10.064393 -0.000004 0.000001 0.000002 0.000005 7.237736 -8.627432 -0.457080 17.224499 -8.853213 0.000000 -15.798256 -15.406569 -0.000000 -0.000001 -0.000001 0.000001 -15.667656 -9.531177 -0.000000 0.000001 -0.000001 -0.000003 -22.065319 -6.658772 0.000000 -0.000000 -0.000000 
1.308870 91.130623 9.002054 24.233093 12.594974 -5.533756 13.075618 -3.179573 0.639549 -23.866330 20.545059 21.444199 6.794676 -36.312599 6.633924 -3.609043 1.735206 4.458381 5.947395 -40.837730 -22.023968 18.676268 10.173514 -15.178695 3.530371 -16.714527 10.064371 -18.453723 0.000037 0.000011 0.000002 7.000005 -0.000002 -5.631392 -4.907385 3.429454 -0.000001 16.380213 2.769188 -11.025908 -10.963736 4.862166 -0.000000 12.374682 -2.704060 -11.230975 -11.704284 2.580994 5.427833 13.926559 -3.043175 0.000001 0.000001 0.000004 8.328255 -1.513907 0.330819 -28.078677 26.882342 13.378635 18.202421 -29.020168 -4.646221 -47.567169 -65.555705 -34.509182 15.200247 -17.465494 27.094402 0.653965 20.583794 -24.098325 7.709654 -14.857485 -17.946501 0.000019 -0.000041 -0.000056 1.322605 -2.846591 -3.714694 0.000004 0.000009 0.000005 0.752032 -1.618555 -2.112172 -0.000003 0.000002 -0.000002 0.545458 -1.173923 -1.531966 -0.000006 0.000003 0.000001 -0.000013 18.401131 -4.020969 12.314487 3.138829 -13.158828 -0.000000 14.491625 -1.122577 0.709259 5.094683 -7.871457 -5.427838 13.926163 -3.043185 -0.000004 0.000001 -0.000004 -8.328278 -1.513029 0.330810 14.856179 -13.088271 -20.036561 -18.202370 -29.021004 -4.646113 -4.990380 28.936206 -0.023441 -15.200302 -17.465036 27.094376 1.223616 5.556733 12.624536 -7.709588 -14.857600 -17.946486 0.000012 -0.000012 0.000005 -1.322703 -2.846605 -3.714702 -0.000013 0.000007 -0.000001 -0.752006 -1.618496 -2.112165 0.000010 -0.000007 0.000005 -0.545396 -1.174002 -1.531972 -0.000008 0.000005 0.000003 -13.075618 -3.179594 0.639560 -59.027847 -8.494358 -19.861005 -6.793941 -36.312820 6.633461 8.328143 -7.602968 -2.614542 -5.947409 -40.837624 -22.023930 31.846583 -11.780017 11.299986 -3.530415 -16.714552 10.064393 -0.000000 0.000001 0.000001 0.000002 7.237740 -8.627435 -0.500018 17.229765 -8.840006 0.000000 -15.798257 -15.406555 -0.000002 0.000003 0.000000 0.000003 -15.667670 -9.531166 0.000002 0.000005 -0.000001 -0.000005 -22.065315 -6.658762 -0.000005 0.000002 -0.000001 
1.320683 91.170807 9.054289 24.240078 12.665283 -5.535284 13.075615 -3.179576 0.639550 -23.776606 20.649004 21.402799 6.794692 -36.312576 6.633922 -3.835780 1.668767 4.424922 5.947364 -40.837692 -22.023945 18.762349 10.111306 -15.145408 3.530362 -16.714527 10.064384 -18.453740 0.000032 -0.000000 0.000001 7.000001 -0.000003 -5.677801 -4.925175 3.412132 -0.000001 16.380211 2.769193 -11.071550 -10.988141 4.852112 0.000001 12.374685 -2.704058 -11.278809 -11.724241 2.575612 5.427837 13.926514 -3.043177 0.000002 0.000002 0.000003 8.328241 -1.513926 0.330820 -27.593937 27.003585 13.298311 18.202406 -29.020214 -4.646010 -47.175891 -65.500203 -34.151134 15.200259 -17.465498 27.094391 3.153032 19.050873 -26.754307 7.709650 -14.857486 -17.946487 0.000025 -0.000041 -0.000061 1.322595 -2.846575 -3.714703 0.000003 0.000001 0.000002 0.752039 -1.618562 -2.112165 -0.000001 0.000002 -0.000002 0.545449 -1.173947 -1.531967 -0.000001 0.000004 -0.000001 -0.000024 18.401052 -4.020962 12.402110 3.097860 -13.322218 0.000005 14.491534 -1.122567 0.818865 5.077163 -8.231002 -5.427840 13.926132 -3.043182 -0.000003 0.000001 -0.000007 -8.328257 -1.512987 0.330813 14.856186 -13.088251 -20.036549 -18.202381 -29.020988 -4.646116 -4.990382 28.936189 -0.023445 -15.200306 -17.465019 27.094376 1.223610 5.556747 12.624531 -7.709589 -14.857595 -17.946501 0.000019 -0.000015 -0.000000 -1.322711 -2.846599 -3.714702 -0.000016 0.000009 -0.000001 -0.751988 -1.618510 -2.112162 0.000008 -0.000005 0.000006 -0.545403 -1.174014 -1.531971 -0.000017 0.000006 -0.000000 -13.075621 -3.179622 0.639548 -58.448661 -7.645121 -19.528884 -6.794072 -36.312775 6.633527 8.180211 -8.065646 -2.903185 -5.947417 -40.837666 -22.023966 31.847594 -12.219100 11.752685 -3.530411 -16.714567 10.064406 -0.000002 0.000001 0.000001 0.000001 7.237721 -8.627426 -0.624353 17.245012 -8.801790 -0.000002 -15.798249 -15.406569 -0.000003 -0.000000 0.000002 0.000003 -15.667680 -9.531165 -0.000002 -0.000001 0.000003 0.000002 -22.065325 -6.658765 -0.000003 -0.000003 -0.000000 
